<svg width="90" height="72" viewBox="0 0 90 72" fill="none" xmlns="http://www.w3.org/2000/svg">
<path d="M87.75 49.5H85.5V34.2984C85.5 32.5125 84.7828 30.7969 83.5172 29.5312L69.4688 15.4828C68.2031 14.2172 66.4875 13.5 64.7016 13.5H58.5V6.75C58.5 3.02344 55.4766 0 51.75 0H6.75C3.02344 0 0 3.02344 0 6.75V51.75C0 55.4766 3.02344 58.5 6.75 58.5H9C9 65.9531 15.0469 72 22.5 72C29.9531 72 36 65.9531 36 58.5H54C54 65.9531 60.0469 72 67.5 72C74.9531 72 81 65.9531 81 58.5H87.75C88.9875 58.5 90 57.4875 90 56.25V51.75C90 50.5125 88.9875 49.5 87.75 49.5ZM22.5 65.25C18.7734 65.25 15.75 62.2266 15.75 58.5C15.75 54.7734 18.7734 51.75 22.5 51.75C26.2266 51.75 29.25 54.7734 29.25 58.5C29.25 62.2266 26.2266 65.25 22.5 65.25ZM67.5 65.25C63.7734 65.25 60.75 62.2266 60.75 58.5C60.75 54.7734 63.7734 51.75 67.5 51.75C71.2266 51.75 74.25 54.7734 74.25 58.5C74.25 62.2266 71.2266 65.25 67.5 65.25ZM78.75 36H58.5V20.25H64.7016L78.75 34.2984V36Z" fill="#197BBD"/>
</svg>
