<svg width="81" height="72" viewBox="0 0 81 72" fill="none" xmlns="http://www.w3.org/2000/svg">
<path d="M13.5 18C15.28 18 17.0201 17.4722 18.5001 16.4832C19.9802 15.4943 21.1337 14.0887 21.8149 12.4442C22.4961 10.7996 22.6743 8.99002 22.3271 7.24419C21.9798 5.49836 21.1226 3.89472 19.864 2.63604C18.6053 1.37737 17.0016 0.520203 15.2558 0.172937C13.51 -0.17433 11.7004 0.00389953 10.0558 0.685088C8.41131 1.36628 7.00571 2.51983 6.01677 3.99987C5.02784 5.47991 4.5 7.21997 4.5 9C4.5 11.387 5.44821 13.6761 7.13604 15.364C8.82387 17.0518 11.1131 18 13.5 18ZM13.5 42.7613C13.498 41.9203 13.667 41.0878 13.9967 40.3142C14.3265 39.5406 14.8101 38.8421 15.4181 38.2613L25.5614 28.6875C25.7934 28.4695 26.0916 28.3627 26.3503 28.1855C25.6885 26.5101 24.5385 25.0723 23.0496 24.0585C21.5606 23.0447 19.8013 22.5017 18 22.5H9C6.61305 22.5 4.32387 23.4482 2.63604 25.136C0.948212 26.8239 0 29.1131 0 31.5L0 45C0 46.1935 0.474106 47.3381 1.31802 48.182C2.16193 49.0259 3.30653 49.5 4.5 49.5V67.5C4.5 68.6935 4.97411 69.8381 5.81802 70.682C6.66193 71.5259 7.80653 72 9 72H18C19.1935 72 20.3381 71.5259 21.182 70.682C22.0259 69.8381 22.5 68.6935 22.5 67.5V53.9452L15.4181 47.2613C14.8099 46.6805 14.3262 45.9821 13.9964 45.2085C13.6666 44.4348 13.4977 43.6022 13.5 42.7613ZM67.5 18C69.28 18 71.0201 17.4722 72.5001 16.4832C73.9802 15.4943 75.1337 14.0887 75.8149 12.4442C76.4961 10.7996 76.6743 8.99002 76.3271 7.24419C75.9798 5.49836 75.1226 3.89472 73.864 2.63604C72.6053 1.37737 71.0016 0.520203 69.2558 0.172937C67.51 -0.17433 65.7004 0.00389953 64.0558 0.685088C62.4113 1.36628 61.0057 2.51983 60.0168 3.99987C59.0278 5.47991 58.5 7.21997 58.5 9C58.5 11.387 59.4482 13.6761 61.136 15.364C62.8239 17.0518 65.1131 18 67.5 18ZM72 22.5H63C61.1988 22.5016 59.4397 23.0444 57.9507 24.0579C56.4618 25.0714 55.3117 26.509 54.6497 28.1841C54.9084 28.3627 55.2122 28.4653 55.44 28.6889L65.5819 38.2598C66.1881 38.8421 66.6704 39.5409 66.9999 40.3141C67.3293 41.0874 67.4992 41.9193 67.4992 42.7598C67.4992 43.6004 67.3293 44.4323 66.9999 45.2056C66.6704 45.9788 66.1881 46.6776 65.5819 47.2598L58.5 53.9466V67.5C58.5 68.6935 58.9741 69.8381 59.818 70.682C60.6619 71.5259 61.8065 72 63 72H72C73.1935 72 74.3381 71.5259 75.182 70.682C76.0259 69.8381 76.5 68.6935 76.5 67.5V49.5C77.6935 49.5 78.8381 49.0259 79.682 48.182C80.5259 47.3381 81 46.1935 81 45V31.5C81 29.1131 80.0518 26.8239 78.364 25.136C76.6761 23.4482 74.3869 22.5 72 22.5ZM62.4937 41.5322L52.3519 31.9613C52.1125 31.733 51.8113 31.5802 51.4858 31.5218C51.1603 31.4633 50.8247 31.5018 50.5209 31.6324C50.2171 31.7631 49.9583 31.9801 49.7768 32.2566C49.5953 32.5331 49.4991 32.8568 49.5 33.1875V38.25H31.5V33.1875C31.5012 32.8567 31.4052 32.5327 31.2238 32.2561C31.0424 31.9794 30.7836 31.7621 30.4797 31.6313C30.1758 31.5005 29.8402 31.4619 29.5145 31.5203C29.1889 31.5787 28.8876 31.7316 28.6481 31.9598L18.5063 41.5322C18.1821 41.8588 18.0002 42.3004 18.0002 42.7606C18.0002 43.2207 18.1821 43.6623 18.5063 43.9889L28.6481 53.5613C28.8877 53.7896 29.1891 53.9425 29.5149 54.0009C29.8407 54.0593 30.1764 54.0205 30.4804 53.8896C30.7843 53.7586 31.0431 53.5411 31.2243 53.2642C31.4056 52.9873 31.5015 52.6632 31.5 52.3322V47.25H49.5V52.3322C49.4985 52.6632 49.5944 52.9873 49.7757 53.2642C49.9569 53.5411 50.2157 53.7586 50.5196 53.8896C50.8236 54.0205 51.1593 54.0593 51.4851 54.0009C51.8109 53.9425 52.1123 53.7896 52.3519 53.5613L62.4937 43.9889C62.8179 43.6623 62.9998 43.2207 62.9998 42.7606C62.9998 42.3004 62.8179 41.8588 62.4937 41.5322Z" fill="#197BBD"/>
</svg>
