<svg width="90" height="72" viewBox="0 0 90 72" fill="none" xmlns="http://www.w3.org/2000/svg">
<path d="M7.05944 52.8187C7.38288 54.014 8.62038 54.7312 9.81569 54.4078L40.2469 46.2515C41.4422 45.9281 42.1594 44.6906 41.836 43.4953L34.8469 17.4094C34.5235 16.214 33.286 15.4969 32.0907 15.8203L21.2344 18.7453L24.7219 31.7812L16.0313 34.1015L12.5438 21.0656L1.67351 23.9765C0.478201 24.3 -0.238985 25.5375 0.0844518 26.7328L7.05944 52.8187ZM54 0C51.511 0 49.5 2.01094 49.5 4.5V50.0062L0.829764 63.2812C0.225077 63.4499 -0.126485 64.0687 0.0422644 64.6593L1.81414 71.1702C1.98289 71.7749 2.60164 72.1265 3.19226 71.9577L58.5563 56.8546C58.8938 65.264 65.7563 71.9999 74.25 71.9999C82.9547 71.9999 90 64.9546 90 56.2499V0L54 0ZM74.25 62.9999C70.5234 62.9999 67.5 59.9765 67.5 56.2499C67.5 52.5234 70.5234 49.4999 74.25 49.4999C77.9766 49.4999 81 52.5234 81 56.2499C81 59.9765 77.9766 62.9999 74.25 62.9999Z" fill="#197BBD"/>
</svg>
