<svg width="81" height="72" viewBox="0 0 81 72" fill="none" xmlns="http://www.w3.org/2000/svg">
<path d="M18.0003 0C10.5443 0 4.50028 12.0881 4.50028 27V51.1973C4.50028 56.9798 3.12215 60.0244 0.116999 69.0384C-0.368158 70.4953 0.716061 72 2.25169 72H41.7561C43.6925 72 45.4123 70.7611 46.0254 68.9231C47.8297 63.5119 49.5003 58.7419 49.5003 51.1973V27C49.5003 15.2438 52.8289 5.41125 57.9997 0H18.0003ZM13.5003 31.5C12.2572 31.5 11.2503 30.4931 11.2503 29.25C11.2503 28.0069 12.2572 27 13.5003 27C14.7434 27 15.7503 28.0069 15.7503 29.25C15.7503 30.4931 14.7434 31.5 13.5003 31.5ZM22.5003 31.5C21.2572 31.5 20.2503 30.4931 20.2503 29.25C20.2503 28.0069 21.2572 27 22.5003 27C23.7434 27 24.7503 28.0069 24.7503 29.25C24.7503 30.4931 23.7434 31.5 22.5003 31.5ZM31.5003 31.5C30.2572 31.5 29.2503 30.4931 29.2503 29.25C29.2503 28.0069 30.2572 27 31.5003 27C32.7434 27 33.7503 28.0069 33.7503 29.25C33.7503 30.4931 32.7434 31.5 31.5003 31.5ZM40.5003 31.5C39.2572 31.5 38.2503 30.4931 38.2503 29.25C38.2503 28.0069 39.2572 27 40.5003 27C41.7434 27 42.7503 28.0069 42.7503 29.25C42.7503 30.4931 41.7434 31.5 40.5003 31.5ZM67.5003 0C60.0443 0 54.0003 12.0881 54.0003 27C54.0003 41.9119 60.0443 54 67.5003 54C74.9562 54 81.0003 41.9119 81.0003 27C81.0003 12.0881 74.9562 0 67.5003 0ZM67.5003 36C65.0154 36 63.0003 31.9711 63.0003 27C63.0003 22.0289 65.0154 18 67.5003 18C69.9851 18 72.0003 22.0289 72.0003 27C72.0003 31.9711 69.9851 36 67.5003 36Z" fill="#197BBD"/>
</svg>
